<?xml version="1.0" encoding="UTF-8"?>
<svg width="50px" height="50px" viewBox="0 0 50 50" version="1.1" xmlns="http://www.w3.org/2000/svg" xmlns:xlink="http://www.w3.org/1999/xlink">
    <!-- Generator: Sketch 59 (86127) - https://sketch.com -->
    <title>我想用实际拜访</title>
    <desc>Created with Sketch.</desc>
    <g id="行销公司" stroke="none" stroke-width="1" fill="none" fill-rule="evenodd">
        <g id="我想用实际拜访" fill-rule="nonzero">
            <path d="M24.3813255,22.8809703 L16.0150701,22.8809703 L16.0150701,26.504794 L28.0034846,26.504794 L28.0034846,11.5151145 L24.3813255,11.5151145 L24.3813255,22.8809703 Z M28.6992853,31.7665794 L49.9428489,31.7665794 L49.9428489,35.3904031 L28.6992853,35.3904031 L28.6992853,31.7665794 Z M28.6992853,38.7978294 L49.9428489,38.7978294 L49.9428489,42.4249822 L28.6992853,42.4249822 L28.6992853,38.7978294 Z M28.6992853,45.8324086 L49.9428489,45.8324086 L49.9428489,49.4595614 L28.6992853,49.4595614 L28.6992853,45.8324086 Z" id="形状" fill="#5F6379"></path>
            <path d="M2.86976207,17.8788619 C3.3141535,18.1385387 3.85853161,18.2017933 4.3478671,18.0403276 L14.7682329,14.6611994 C15.2293257,14.5130504 15.6038596,14.1917836 15.8235862,13.7606534 C16.0433128,13.3295233 16.0832631,12.8384677 15.9334495,12.3773748 C15.7859378,11.9198675 15.4622832,11.539951 15.034032,11.3216085 C14.6057807,11.1032659 14.1082022,11.0644794 13.6512895,11.2138228 L7.56719416,13.1863681 C8.36233657,11.9796573 9.2781364,10.856938 10.3004594,9.835538 C14.2455088,5.86840664 19.6138162,3.64459909 25.2085738,3.65988991 C30.8398992,3.65988991 36.1333119,5.85382635 40.1166881,9.835538 C44.0830515,13.7809674 46.3062171,19.149172 46.2906716,24.7436523 C46.2923889,26.1539533 46.1529781,27.5608869 45.8745228,28.943426 L45.816262,29.2397239 L49.5099987,29.2397239 L49.5449552,29.0366433 C49.7916877,27.6189543 49.9161599,26.1826516 49.9161599,24.7436523 C49.9161599,21.4078036 49.2603094,18.1718306 47.9719127,15.1256214 C46.7330343,12.1903785 44.9358408,9.52370294 42.6801647,7.27372603 C38.0521791,2.63109482 31.7639475,0.0255682869 25.2086293,0.0343792463 C21.8727805,0.0343792463 18.6368075,0.688587536 15.5905984,1.9769842 C12.6542899,3.21704834 9.98698417,5.01598155 7.73703835,7.27372603 C6.57017435,8.43908285 5.52289806,9.71832094 4.61087314,11.0923074 L3.59552557,5.92373935 C3.40197011,4.94206985 2.45025036,4.30237716 1.46817294,4.4938521 C0.996353588,4.58472266 0.580758346,4.86118645 0.314608487,5.26123047 C0.0445122982,5.65880761 -0.0544574783,6.14825814 0.0399502841,6.61954013 L2.01249556,16.665372 C2.11138384,17.1739281 2.42348486,17.6157177 2.86976207,17.8788619 L2.86976207,17.8788619 Z M10.3005149,39.6517667 C7.34030046,36.7081381 5.32812383,32.94643 4.52264959,28.8502086 L4.4843639,28.6504572 L0.805608576,28.6504572 L0.853881836,28.9400968 C1.71786074,33.9717483 4.12296779,38.6109584 7.73698287,42.2169078 C9.98735819,44.473294 12.6546101,46.2710602 15.5905429,47.5103205 C18.5707924,48.771867 21.7709638,49.4320403 25.0071578,49.4529031 L25.2551824,49.4545676 L25.2551824,45.8290794 L25.0104869,45.8257502 C19.4848105,45.7882016 14.1977228,43.5691444 10.3004594,39.6517667 L10.3005149,39.6517667 Z" id="形状" fill="#FA8466"></path>
        </g>
    </g>
</svg>