<svg t="1600070414025" class="icon" viewBox="0 0 1024 1024" version="1.1" xmlns="http://www.w3.org/2000/svg" p-id="1619" width="200" height="200"><path d="M633.21 893.51a153.34 153.34 0 0 1-110.29-46.58 158.64 158.64 0 0 1-45.38-111.71V281.68a98.76 98.76 0 0 0-29.48-71 93.88 93.88 0 0 0-67.62-27.32c-52 0.8-94.25 44.88-94.25 98.28v581.87a30 30 0 0 1-60 0V281.67a158.78 158.78 0 0 1 44.56-110.86A153.86 153.86 0 0 1 490.18 168a158.31 158.31 0 0 1 47.38 113.71v453.52a99 99 0 0 0 28.24 69.72 93.79 93.79 0 0 0 67.43 28.57c52.75 0 95.67-44.09 95.67-98.29V155.29a30 30 0 0 1 60 0v579.94c-0.02 87.28-69.9 158.28-155.69 158.28z" p-id="1620"></path><path d="M862.33 283.58a29.91 29.91 0 0 1-21.43-9l-98.15-100.2a30 30 0 0 1 42.86-42l98.15 100.2a30 30 0 0 1-21.43 51zM256.21 893.51a29.91 29.91 0 0 1-21.43-9l-98.15-100.2a30 30 0 0 1 42.86-42l98.15 100.2a30 30 0 0 1-21.43 51z" p-id="1621"></path></svg>