<?xml version="1.0" encoding="UTF-8"?>
<svg width="12px" height="12px" viewBox="0 0 12 12" version="1.1" xmlns="http://www.w3.org/2000/svg" xmlns:xlink="http://www.w3.org/1999/xlink">
    <!-- Generator: Sketch 59 (86127) - https://sketch.com -->
    <title>销售</title>
    <desc>Created with Sketch.</desc>
    <g id="行销公司" stroke="none" stroke-width="1" fill="none" fill-rule="evenodd">
        <g id="【YNGM-1353】5.11.4、门店详情" transform="translate(-66.000000, -201.000000)" fill-rule="nonzero">
            <g id="编组-55" transform="translate(65.000000, 198.000000)">
                <g id="销售" transform="translate(0.000000, 2.000000)">
                    <rect id="矩形" fill="#000000" opacity="0" x="0" y="0" width="13.9863415" height="13.9863415"></rect>
                    <path d="M7.01984924,4.78768376 C7.02028835,3.77993264 7.83642067,2.96272787 8.84417034,2.96096539 C9.85223215,2.96228763 10.6688506,3.77962118 10.6692905,4.78768376 C10.6684101,5.79543431 9.85192042,6.61228149 8.84417034,6.61360303 C7.83673237,6.61184138 7.02072872,5.79512288 7.01984924,4.78768376 M12.9131336,2.10753791 C12.9131336,1.53379172 12.4472644,1.06712351 11.8926964,1.06712351 L11.8918973,1.06712351 C11.8743173,1.06632442 10.0723708,1 8.7115215,1 C7.14530627,1 7.00386745,1.07591349 6.8344605,1.24532045 L4.41242053,3.6689586 L1.30396276,6.77981363 C0.897434835,7.18925697 0.898864438,7.85044746 1.30715912,8.25812902 L5.72692259,12.6802898 C5.92509676,12.8776648 6.18719808,12.986341 6.46767846,12.986341 C6.74735975,12.986341 7.0078629,12.8784639 7.20284072,12.682687 L10.6620987,9.22262993 L12.7341375,7.14819384 C12.917129,6.96600146 13.0889332,6.79339815 12.9131336,2.10753791" id="形状" fill="#CED3DD"></path>
                </g>
            </g>
        </g>
    </g>
</svg>