<?xml version="1.0" encoding="UTF-8"?>
<svg width="18px" height="18px" viewBox="0 0 18 18" version="1.1" xmlns="http://www.w3.org/2000/svg" xmlns:xlink="http://www.w3.org/1999/xlink">
    <!-- Generator: Sketch 59 (86127) - https://sketch.com -->
    <title>同意-icon</title>
    <desc>Created with Sketch.</desc>
    <g id="行销公司" stroke="none" stroke-width="1" fill="none" fill-rule="evenodd">
        <g id="审批通过备份" transform="translate(-467.000000, -399.000000)">
            <g id="同意-icon" transform="translate(467.000000, 399.000000)">
                <g id="Group-6备份-3" transform="translate(1.000000, 1.000000)" stroke="#000000" stroke-opacity="0.15">
                    <circle id="Oval-1-Copy-10" cx="8" cy="8" r="7.5"></circle>
                </g>
                <g id="Group-6备份-4" transform="translate(1.000000, 1.000000)" fill="#19BE6B" stroke="#19BE6B">
                    <circle id="Oval-1-Copy-10" cx="8" cy="8" r="8"></circle>
                </g>
                <g id="check-circle备份-3" fill="#FFFFFF" fill-rule="nonzero">
                    <path d="M12.6523438,5.89453125 L11.7363281,5.89453125 C11.5371094,5.89453125 11.3476563,5.99023438 11.2304688,6.15429688 L8.16015625,10.4121094 L6.76953125,8.48242188 C6.65234375,8.3203125 6.46484375,8.22265625 6.26367188,8.22265625 L5.34765625,8.22265625 C5.22070313,8.22265625 5.14648438,8.3671875 5.22070313,8.47070312 L7.65429688,11.8457031 C7.90234375,12.1914062 8.41601563,12.1914062 8.6640625,11.8457031 L12.7773438,6.14257812 C12.8535156,6.0390625 12.7792969,5.89453125 12.6523438,5.89453125 Z" id="路径"></path>
                    <path d="M9,0.25 C4.16796875,0.25 0.25,4.16796875 0.25,9 C0.25,13.8320312 4.16796875,17.75 9,17.75 C13.8320312,17.75 17.75,13.8320312 17.75,9 C17.75,4.16796875 13.8320312,0.25 9,0.25 Z M9,16.265625 C4.98828125,16.265625 1.734375,13.0117187 1.734375,9 C1.734375,4.98828125 4.98828125,1.734375 9,1.734375 C13.0117187,1.734375 16.265625,4.98828125 16.265625,9 C16.265625,13.0117187 13.0117187,16.265625 9,16.265625 Z" id="形状"></path>
                </g>
            </g>
        </g>
    </g>
</svg>