<?xml version="1.0" encoding="UTF-8"?>
<svg width="50px" height="50px" viewBox="0 0 50 50" version="1.1" xmlns="http://www.w3.org/2000/svg" xmlns:xlink="http://www.w3.org/1999/xlink">
    <!-- Generator: Sketch 59 (86127) - https://sketch.com -->
    <title>我想用现状</title>
    <desc>Created with Sketch.</desc>
    <g id="行销公司" stroke="none" stroke-width="1" fill="none" fill-rule="evenodd">
        <g id="我想用现状" fill-rule="nonzero">
            <path d="M29.9231628,29.9679129 C32.6052219,27.2858538 32.6052219,22.9373605 29.9231628,20.2553013 C27.2411036,17.5732422 7.49957074,7.54399897 7.49957074,7.54399897 C7.49957074,7.54399897 17.528492,27.2858538 20.2105512,29.9679129 C22.8926103,32.6499721 27.2411036,32.6499721 29.9231628,29.9679129 Z" id="路径" fill="#3CD459"></path>
            <path d="M25.0042926,0.029296875 L22.5068145,0.029296875 L22.5068145,11.2688337 C22.5068145,11.9580615 23.0655477,12.5168484 23.7548292,12.5168484 L23.7563316,12.5168484 C24.4455593,12.5168484 25.0043462,11.9581151 25.0043462,11.2688337 L25.0043462,2.52677498 C28.0398996,2.52677498 30.9833233,3.12076107 33.7528438,4.29215316 C36.4291617,5.4241608 38.8332224,7.04520089 40.8983302,9.11030864 C42.9634379,11.1754164 44.584478,13.5795308 45.7164857,16.255795 C46.8878777,19.0253155 47.4818102,21.9687393 47.4818102,25.0042926 C47.4818102,28.0398459 46.8878241,30.9832697 45.716432,33.7527902 C44.5844244,36.429108 42.9633843,38.8331688 40.8982765,40.8982765 C38.8331688,42.9633843 36.4290543,44.5844244 33.7527902,45.716432 C30.9832697,46.8878777 28.0398459,47.4818102 25.0042926,47.4818102 C21.9687393,47.4818102 19.0253155,46.8878241 16.255795,45.716432 C13.5794772,44.5844244 11.1754164,42.9633843 9.11030864,40.8982765 C7.04520089,38.8331688 5.4241608,36.4290543 4.29215316,33.7527902 C3.12070742,30.9832697 2.52677498,28.0398459 2.52677498,25.0042926 C2.52677498,23.2385925 2.72788247,21.5041209 3.12660972,19.8168677 C3.27910371,19.1715853 2.89980039,18.5199176 2.26353237,18.3332439 C1.57709478,18.1318681 0.861682263,18.5473901 0.697276356,19.2435933 C0.260559753,21.0928915 0.0292432177,23.0215488 0.0292432177,25.0042389 C0.0292432177,38.7975404 11.2109375,49.9792346 25.0041853,49.9792346 C38.7972721,49.9792346 49.9792883,38.7972184 49.9792883,25.0041316 C49.9792883,11.2109375 38.797594,0.029296875 25.0042926,0.029296875 Z" id="路径" fill="#60647A"></path>
        </g>
    </g>
</svg>