<svg t="1600072632100" class="icon" viewBox="0 0 1024 1024" version="1.1" xmlns="http://www.w3.org/2000/svg" p-id="6083" width="200" height="200"><path d="M853.333333 853.333333H170.666667c-23.514074 0-42.666667-19.152593-42.666667-42.666666V317.62963c0-23.514074 19.152593-42.666667 42.666667-42.666667h682.666666c23.514074 0 42.666667 19.152593 42.666667 42.666667v493.037037c0 23.514074-19.152593 42.666667-42.666667 42.666666zM170.666667 317.62963v493.037037h682.666666V317.62963H170.666667z" p-id="6084"></path><path d="M640 317.62963H384c-23.514074 0-42.666667-19.152593-42.666667-42.666667v-61.62963c0-23.514074 19.152593-42.666667 42.666667-42.666666h256c23.514074 0 42.666667 19.152593 42.666667 42.666666v61.62963c0 23.514074-19.152593 42.666667-42.666667 42.666667zM384 213.333333v61.62963h256v-61.62963H384zM149.333333 463.644444h725.333334v42.666667h-725.333334z" p-id="6085"></path><path d="M512.474074 601.125926C448.474074 601.125926 396.325926 548.977778 396.325926 484.977778h42.666667c0 40.485926 32.995556 73.481481 73.481481 73.481481s73.481481-32.995556 73.481482-73.481481h42.666666C628.622222 548.977778 576.474074 601.125926 512.474074 601.125926z" p-id="6086"></path></svg>