<?xml version="1.0" encoding="UTF-8"?>
<svg width="13px" height="13px" viewBox="0 0 13 13" version="1.1" xmlns="http://www.w3.org/2000/svg" xmlns:xlink="http://www.w3.org/1999/xlink">
    <!-- Generator: Sketch 59 (86127) - https://sketch.com -->
    <title>编辑</title>
    <desc>Created with Sketch.</desc>
    <g id="行销公司" stroke="none" stroke-width="1" fill="none" fill-rule="evenodd">
        <g id="4.6、计划详情" transform="translate(-424.000000, -82.000000)" fill-rule="nonzero">
            <g id="分组-2备份-11" transform="translate(43.000000, 67.000000)">
                <g id="编辑" transform="translate(380.000000, 15.000000)">
                    <rect id="矩形" fill="#000000" opacity="0" x="0" y="0" width="14" height="14"></rect>
                    <path d="M13.1507544,1.93308361 C12.932031,1.71437 12.5774264,1.71437 12.3587324,1.93308361 L6.81464561,7.47693661 C6.59592221,7.69562221 6.59592221,8.05021141 6.81464561,8.268925 C7.033341,8.48761061 7.38794561,8.48761061 7.60663961,8.268925 L13.150753,2.725072 C13.3694484,2.50635839 13.3694484,2.1517692 13.1507544,1.93308361 Z M11.0969166,7.87990561 C10.7904552,7.87990561 10.5419874,8.12833561 10.5419874,8.434811 L10.5419874,11.2093539 C10.5419874,11.5158307 10.2935476,11.7642593 9.98705821,11.7642593 L2.77292442,11.7642593 C2.46643503,11.7642593 2.21799523,11.5158293 2.21799523,11.2093539 L2.21799523,2.33081971 C2.21799523,2.02437091 2.46643503,1.77591431 2.77292442,1.77591431 L8.32224306,1.77591431 C8.62873245,1.77591431 8.87717225,1.52748431 8.87717225,1.22100892 C8.87717225,0.914560117 8.62873245,0.666103498 8.32224306,0.666103498 L2.21799535,0.666103498 C1.60504455,0.666103498 1.10813696,1.1629901 1.10813696,1.7759157 L1.10813696,11.7642756 C1.10813696,12.3771998 1.60504456,12.8741158 2.21799535,12.8741158 L10.5419873,12.8741158 C11.1549661,12.8741158 11.6518457,12.3772012 11.6518457,11.7642756 L11.6518457,8.43481119 C11.6518457,8.12833561 11.403406,7.87990561 11.0969166,7.87990561 Z" id="形状" fill="#BF5CFF"></path>
                </g>
            </g>
        </g>
    </g>
</svg>