<?xml version="1.0" encoding="UTF-8"?>
<svg width="44px" height="48px" viewBox="0 0 44 48" version="1.1" xmlns="http://www.w3.org/2000/svg" xmlns:xlink="http://www.w3.org/1999/xlink">
    <!-- Generator: Sketch 59 (86127) - https://sketch.com -->
    <title>我想导入计划</title>
    <desc>Created with Sketch.</desc>
    <g id="行销公司" stroke="none" stroke-width="1" fill="none" fill-rule="evenodd">
        <g id="我想导入计划" fill-rule="nonzero">
            <path d="M24.1179056,2.41398796 L24.1179056,29.4154947 C24.1179056,30.7469697 23.0385318,31.8263435 21.7070568,31.8263435 C20.3755818,31.8263435 19.2962079,30.7469697 19.2962079,29.4154947 L19.2962079,2.41398796 C19.2962079,1.08251292 20.3755817,0.00313914176 21.7070568,0.00313914176 C23.0385318,0.00313914176 24.1179056,1.08251292 24.1179056,2.41398796 Z" id="路径" fill="#FFA000"></path>
            <path d="M21.7584882,28.2325716 L35.4360372,14.6000251 C36.3876013,13.7166072 37.8678765,13.7454814 38.784266,14.6653355 C39.7006556,15.5851897 39.7239437,17.0655633 38.8369413,18.013787 L21.7584882,35.0408086 L4.57395783,17.9141386 C3.65888395,16.9694796 3.66978073,15.4657265 4.59844852,14.534428 C5.52711631,13.6031294 7.03083249,13.5879788 7.97807636,14.5003767 L21.7584882,28.2325716 Z" id="路径" fill="#FFA000"></path>
            <path d="M0.0094173782,29.4154947 L0.0094173782,38.139553 C0.0094173782,43.3148418 4.98540934,47.255776 10.8839528,47.255776 L32.5301607,47.255776 C38.4287042,47.255776 43.4046961,43.3148418 43.4046961,38.139553 L43.4046961,29.4154947 C43.4046961,28.0840197 42.3253224,27.0046459 40.9938473,27.0046459 C39.6623723,27.0046459 38.5829985,28.0840197 38.5829985,29.4154947 L38.5829985,38.139553 C38.5829985,40.3736062 35.9792818,42.4340784 32.5301607,42.4340784 L10.8839528,42.4340784 C7.43483174,42.4340784 4.83111502,40.3703918 4.83111502,38.139553 L4.83111502,29.4154947 C4.83111502,28.0840197 3.75174124,27.0046459 2.4202662,27.0046459 C1.08879116,27.0046459 0.0094173782,28.0840197 0.0094173782,29.4154947 Z" id="路径" fill="#5F6379"></path>
        </g>
    </g>
</svg>