<?xml version="1.0" standalone="no"?><!DOCTYPE svg PUBLIC "-//W3C//DTD SVG 1.1//EN" "http://www.w3.org/Graphics/SVG/1.1/DTD/svg11.dtd"><svg t="1602743746787" class="icon" viewBox="0 0 1024 1024" version="1.1" xmlns="http://www.w3.org/2000/svg" p-id="4452" xmlns:xlink="http://www.w3.org/1999/xlink" width="200" height="200"><defs><style type="text/css"></style></defs><path d="M957.046154 152.260923a44.110769 44.110769 0 0 0-62.306462 0L458.043077 588.957538a44.110769 44.110769 0 1 0 62.385231 62.385231l436.696615-436.696615a44.110769 44.110769 0 0 0 0-62.385231zM795.411692 620.701538a43.716923 43.716923 0 0 0-43.716923 43.716924v218.505846a43.716923 43.716923 0 0 1-43.716923 43.716923H139.657846a43.716923 43.716923 0 0 1-43.716923-43.716923V183.611077c0-24.182154 19.534769-43.716923 43.716923-43.716923h437.169231a43.716923 43.716923 0 1 0 0-87.433846H95.862154a87.433846 87.433846 0 0 0-87.433846 87.433846v786.747077c0 48.285538 39.148308 87.433846 87.433846 87.433846h655.675077a87.433846 87.433846 0 0 0 87.433846-87.433846v-262.301539a43.716923 43.716923 0 0 0-43.716923-43.638154z" fill="#BF5CFF" p-id="4453"></path></svg>