<?xml version="1.0" encoding="UTF-8"?>
<svg width="50px" height="50px" viewBox="0 0 50 50" version="1.1" xmlns="http://www.w3.org/2000/svg" xmlns:xlink="http://www.w3.org/1999/xlink">
    <!-- Generator: Sketch 59 (86127) - https://sketch.com -->
    <title>上月计划路线</title>
    <desc>Created with Sketch.</desc>
    <g id="行销公司" stroke="none" stroke-width="1" fill="none" fill-rule="evenodd">
        <g id="已选择创建区域方式" transform="translate(-251.000000, -308.000000)" fill-rule="nonzero">
            <g id="上月计划路线" transform="translate(251.000000, 308.000000)">
                <path d="M12.5,12.5 C5.59644063,12.5 0,18.0964406 0,25 C0,35.875 12.5,50 12.5,50 C12.5,50 25,35.875 25,25 C25,18.0964406 19.4035594,12.5 12.5,12.5 Z M12.5,31.25 C9.04822031,31.25 6.25,28.4517797 6.25,25 C6.25,21.5482203 9.04822031,18.75 12.5,18.75 C15.9517797,18.75 18.75,21.5482203 18.75,25 C18.75,26.6576031 18.0915197,28.247315 16.9194174,29.4194174 C15.747315,30.5915197 14.1576031,31.25 12.5,31.25 Z" id="形状" fill="#19BE6B"></path>
                <path d="M20.4,46.875 L20.825,49.375 C19.325,49.625 17.625,49.85 15.825,50 L15.825,50 L15.6,47.5 C17.325,47.35 18.975,47.15 20.4,46.875 L20.4,46.875 Z M27.375,45 L28.4,47.3 C26.7927047,48.0096988 25.1174259,48.5541644 23.4,48.925 L23.4,48.925 L22.85,46.425 C24.4020282,46.1018894 25.9178903,45.6245184 27.375,45 L27.375,45 Z M31.8,40.475 L34.175,41.3 C33.6025895,42.9412255 32.5908697,44.3939514 31.25,45.5 L31.25,45.5 L30.8,45.85 L29.3,43.85 L29.625,43.6 C30.6277404,42.7820128 31.3812217,41.6994248 31.8,40.475 L31.8,40.475 Z M34.675,33.375 C34.825,34.425 34.825,35.525 34.825,36.6 C34.858021,37.2579193 34.858021,37.9170807 34.825,38.575 L34.825,38.575 L32.325,38.325 L32.325,36.6 C32.325,35.575 32.175,34.55 32.175,33.55 L32.175,33.55 Z M33.05,25.575 L35.25,26.775 C35.1486903,26.9619039 35.0569062,27.1538161 34.975,27.35 C34.6294783,28.3107535 34.4765683,29.3301535 34.525,30.35 L34.525,30.35 L34.525,31 L32.025,31 L32.025,30.275 C31.9698208,28.9196283 32.1909726,27.5671996 32.675,26.3 C32.7916667,26.0333333 32.9166667,25.7916667 33.05,25.575 L33.05,25.575 Z M39.85,20.675 L40.4,23.175 C38.9663837,23.4644138 37.6316962,24.1188412 36.525,25.075 L36.525,25.075 L34.85,23.225 C36.2674717,21.9559903 37.9904832,21.0772545 39.85,20.675 L39.85,20.675 Z" id="形状结合" fill="#19BE6B"></path>
                <path d="M42.5,-1.77635684e-15 C46.6421356,-1.77635684e-15 50,3.35786438 50,7.5 C50,14.025 42.5,22.5 42.5,22.5 C42.5,22.5 35,14.025 35,7.5 C35,3.35786438 38.3578644,-1.77635684e-15 42.5,-1.77635684e-15 Z M42.5,3.75 C40.4289322,3.75 38.75,5.42893219 38.75,7.5 C38.75,9.57106781 40.4289322,11.25 42.5,11.25 C43.4945618,11.25 44.448389,10.8549118 45.1516504,10.1516504 C45.8549118,9.44838901 46.25,8.49456184 46.25,7.5 C46.25,5.42893219 44.5710678,3.75 42.5,3.75 Z" id="形状结合" fill="#60647A"></path>
            </g>
        </g>
    </g>
</svg>