<svg t="1600501798210" class="icon" viewBox="0 0 1024 1024" version="1.1" xmlns="http://www.w3.org/2000/svg" p-id="4981" width="200" height="200"><path d="M1008.256 142.272L890.496 24.704a54.848 54.848 0 0 0-75.136 0l-117.568 117.76a53.056 53.056 0 0 0 0 75.136 53.056 53.056 0 0 0 75.136 0l28.736-28.736v585.152a117.376 117.376 0 1 1-234.624 0V265.344a224.384 224.384 0 0 0-448.576 0v568.512l-27.008-28.032A53.376 53.376 0 1 0 15.744 881.28l117.76 117.568a53.184 53.184 0 0 0 75.136 0l117.568-117.76a53.184 53.184 0 0 0-75.136-75.2L225.088 832V265.152a118.144 118.144 0 0 1 236.096 0v508.16a223.616 223.616 0 0 0 447.04 0v-581.12l24.32 25.216a53.184 53.184 0 0 0 75.2-75.136h0.512z" fill="#FFFFFF" p-id="4982"></path></svg>