<?xml version="1.0" encoding="UTF-8"?>
<svg width="14px" height="14px" viewBox="0 0 14 14" version="1.1" xmlns="http://www.w3.org/2000/svg" xmlns:xlink="http://www.w3.org/1999/xlink">
    <!-- Generator: Sketch 59 (86127) - https://sketch.com -->
    <title>icon-电话</title>
    <desc>Created with Sketch.</desc>
    <g id="icon-电话" stroke="none" stroke-width="1" fill="none" fill-rule="evenodd">
        <g id="电话">
            <g id="分组-9">
                <rect id="矩形" fill="#000000" opacity="0" x="0" y="0" width="14" height="14"></rect>
                <path d="M2.02128799,3.555118 C2.02128799,3.555118 1.53814967,6.01980031 5.17517922,9.66395503 C5.20164784,9.69030329 5.22708522,9.71424061 5.25321009,9.74024445 C5.27933497,9.76642051 5.30322548,9.79207993 5.32952223,9.81860041 C8.96655178,13.4627551 11.4264151,12.9786703 11.4264151,12.9786703 C11.5769768,12.9585216 11.8933972,12.8681109 12.0004748,12.7604791 C12.0004748,12.7604791 12.5600972,12.2996427 12.9029861,11.7318634 C13.246047,11.1642563 12.5977376,10.3078516 12.2247706,9.93432613 C11.4723055,9.18038684 10.78034,9.03331873 10.4756071,9.24289939 C10.3386234,9.33709875 9.79429783,9.92485453 9.79429783,9.92485453 C9.68704834,10.0324863 9.47478373,10.1218638 9.32301883,10.1237581 C9.32301883,10.1237581 8.37186711,10.1334019 6.60259429,8.38821673 C4.86082134,6.61565 4.87027442,5.66263492 4.87027442,5.66263492 C4.87233691,5.51074491 4.96136774,5.29789225 5.0687891,5.19043265 C5.0687891,5.19043265 5.74356713,4.51484931 5.74941086,4.50778867 C6.00533151,4.18678756 5.58148978,3.38876228 5.05933602,2.75519841 C4.72366574,2.34791964 4.45176079,2.10957977 3.94318509,2.01245282 C3.26445395,1.88295023 2.04552225,2.78877953 2.02128799,3.555118 Z" id="路径" fill="#CED3DD"></path>
            </g>
        </g>
    </g>
</svg>