<svg t="1600502196279" class="icon" viewBox="0 0 1024 1024" version="1.1" xmlns="http://www.w3.org/2000/svg" p-id="5231" width="200" height="200"><path d="M970.459429 915.456H41.764571c-23.405714 0-41.764571 18.285714-41.764571 41.764571 0 22.454857 18.285714 41.837714 41.764571 41.837715h928.694858c23.405714 0 41.837714-18.358857 41.837714-41.837715 0-23.405714-18.358857-41.764571-41.837714-41.764571zM50.980571 855.259429h170.203429c28.525714 0 50.980571-23.405714 50.980571-50.907429V427.154286c0-28.525714-23.405714-50.980571-50.980571-50.980572H50.980571c-28.525714 0-50.980571 23.405714-50.980571 50.980572v376.173714c0 28.525714 23.405714 51.931429 50.980571 51.931429zM968.411429 187.538286h-170.203429c-28.525714 0-50.980571 23.478857-50.980571 50.980571v564.809143c0 28.525714 23.405714 50.907429 50.980571 50.907429h170.203429c28.525714 0 50.980571-23.405714 50.980571-50.907429V239.542857c0-28.525714-23.405714-51.931429-50.980571-51.931428z m-547.401143 667.794285h170.276571c28.525714 0 50.907429-23.478857 50.907429-50.980571V50.980571C642.194286 22.454857 618.788571 0 591.286857 0H421.010286c-28.525714 0-50.980571 23.405714-50.980572 50.980571v752.347429c0 28.525714 22.454857 51.931429 50.980572 51.931429z" fill="#FFFFFF" p-id="5232"></path></svg>