<?xml version="1.0" encoding="UTF-8"?>
<svg width="54px" height="35px" viewBox="0 0 54 35" version="1.1" xmlns="http://www.w3.org/2000/svg" xmlns:xlink="http://www.w3.org/1999/xlink">
    <!-- Generator: Sketch 59 (86127) - https://sketch.com -->
    <title>上月实际路线</title>
    <desc>Created with Sketch.</desc>
    <g id="行销公司" stroke="none" stroke-width="1" fill="none" fill-rule="evenodd">
        <g id="已选择创建区域方式" transform="translate(-630.000000, -316.000000)">
            <g id="上月实际路线" transform="translate(630.000000, 307.000000)">
                <rect id="矩形" x="0" y="0" width="54" height="54"></rect>
                <path d="M33.3447013,23.4757633 L47.7932854,21.6885066 L46.4695686,20.1688606 L26.6926659,21.7243473 L42.8138164,33.4466482 C37.8080642,33.7596571 19.5938164,35.2339049 19.5938164,35.2339049 L14.6931969,43.4963827 L53.7022235,36.3425774 L53.7022235,36.3162942 L33.3447013,23.4757633 L33.3447013,23.4757633 Z M24.7907221,21.9871792 C24.7954978,15.2324004 19.2569137,9.73682522 12.4495686,9.73682522 C5.64461283,9.73682522 0.106028761,15.1941704 0.106028761,21.9083296 C0.115586283,23.7362058 0.526559735,25.5377987 1.30788717,27.19125 C3.07125,30.9951438 9.32186947,38.7558518 11.661073,41.5992146 C12.0744358,42.1009845 12.8438164,42.091427 13.2452323,41.5824889 C15.7970907,38.3448783 21.4790376,31.0023119 23.471781,27.3083296 C24.4108075,25.57125 24.7907221,24.0277102 24.7907221,21.9871792 L24.7907221,21.9871792 Z M12.451958,26.7062058 C9.83244382,26.702262 7.70952124,24.5804078 7.70425885,21.960896 C7.7082063,19.340451 9.83151298,17.2171444 12.451958,17.2131969 C15.0733344,17.2171474 17.1970255,19.3419073 17.1996571,21.9632854 C17.1930807,24.581864 15.0705418,26.7022664 12.451958,26.7062058 L12.451958,26.7062058 Z" id="形状" fill="#3688FF" fill-rule="nonzero"></path>
                <path d="M49.0166482,9.16573957 C51.4745632,9.15782891 53.4742536,11.1425484 53.4847898,13.6004535 C53.4847898,14.3387721 53.3462058,14.8978872 53.0069137,15.5286836 C52.2853208,16.8643473 50.2304535,19.5237279 49.3057633,20.6945243 C49.2366435,20.7819485 49.1316258,20.8333356 49.0201822,20.8342771 C48.9087386,20.835193 48.8028791,20.7855632 48.7323119,20.6993031 C47.8840819,19.6694801 45.6213385,16.8595686 44.9833739,15.4832854 C44.701427,14.8859403 44.5532854,14.2336394 44.5485066,13.571781 C44.5485066,11.141781 46.5531969,9.16573957 49.0166482,9.16573957 Z M49.0166482,11.8729314 C48.381259,11.8394085 47.7792501,12.1593217 47.4514816,12.7046758 C47.123713,13.2500298 47.123713,13.9317622 47.4514816,14.4771163 C47.7792501,15.0224703 48.381259,15.3423835 49.0166482,15.3088606 C49.9302798,15.2606578 50.6463631,14.5057983 50.6463631,13.590896 C50.6463631,12.6759937 49.9302798,11.9211343 49.0166482,11.8729314 Z" id="形状结合" fill="#60647A" fill-rule="nonzero"></path>
            </g>
        </g>
    </g>
</svg>