<?xml version="1.0" encoding="UTF-8"?>
<svg width="14px" height="14px" viewBox="0 0 14 14" version="1.1" xmlns="http://www.w3.org/2000/svg" xmlns:xlink="http://www.w3.org/1999/xlink">
    <!-- Generator: Sketch 59 (86127) - https://sketch.com -->
    <title>icon-客户形态</title>
    <desc>Created with Sketch.</desc>
    <g id="icon-客户形态" stroke="none" stroke-width="1" fill="none" fill-rule="evenodd">
        <g id="分组">
            <g>
                <rect id="矩形" fill="#000000" opacity="0" x="0" y="0" width="14" height="14"></rect>
                <path d="M3.05960265,2 L5.70860927,2 C6.30463576,2 6.76821192,2.46357616 6.76821192,3.05960265 L6.76821192,5.70860927 C6.76821192,6.30463576 6.30463576,6.76821192 5.70860927,6.76821192 L3.05960265,6.76821192 C2.46357616,6.70198675 2,6.2384106 2,5.64238411 L2,2.99337748 C2,2.46357616 2.46357616,2 3.05960265,2 Z M8.29139073,2 L10.9403974,2 C11.5364238,2 12,2.46357616 12,3.05960265 L12,5.70860927 C12,6.30463576 11.5364238,6.76821192 10.9403974,6.76821192 L8.29139073,6.76821192 C7.69536424,6.70198675 7.23178808,6.2384106 7.23178808,5.64238411 L7.23178808,2.99337748 C7.23178808,2.46357616 7.69536424,2 8.29139073,2 L8.29139073,2 Z M8.29139073,5.64238411 L10.9403974,5.64238411 L10.9403974,2.99337748 L8.29139073,2.99337748 L8.29139073,5.64238411 Z M8.29139073,7.23178808 L10.9403974,7.23178808 C11.5364238,7.23178808 12,7.69536424 12,8.29139073 L12,10.9403974 C12,11.5364238 11.5364238,12 10.9403974,12 L8.29139073,12 C7.69536424,12 7.23178808,11.5364238 7.23178808,10.9403974 L7.23178808,8.29139073 C7.23178808,7.69536424 7.69536424,7.23178808 8.29139073,7.23178808 L8.29139073,7.23178808 Z M8.29139073,10.8741722 L10.9403974,10.8741722 L10.9403974,8.22516556 L8.29139073,8.22516556 L8.29139073,10.8741722 Z M3.05960265,7.23178808 L5.70860927,7.23178808 C6.30463576,7.23178808 6.76821192,7.69536424 6.76821192,8.29139073 L6.76821192,10.9403974 C6.76821192,11.5364238 6.30463576,12 5.70860927,12 L3.05960265,12 C2.46357616,12 2,11.5364238 2,10.9403974 L2,8.29139073 C2,7.69536424 2.46357616,7.23178808 3.05960265,7.23178808 L3.05960265,7.23178808 Z M3.05960265,10.8741722 L5.70860927,10.8741722 L5.70860927,8.22516556 L3.05960265,8.22516556 L3.05960265,10.8741722 Z" id="形状" fill="#CED3DD" fill-rule="nonzero"></path>
            </g>
        </g>
    </g>
</svg>