<?xml version="1.0" encoding="UTF-8"?>
<svg width="48px" height="51px" viewBox="0 0 48 51" version="1.1" xmlns="http://www.w3.org/2000/svg" xmlns:xlink="http://www.w3.org/1999/xlink">
    <!-- Generator: Sketch 59 (86127) - https://sketch.com -->
    <title>AI自动规划</title>
    <desc>Created with Sketch.</desc>
    <g id="行销公司" stroke="none" stroke-width="1" fill="none" fill-rule="evenodd">
        <g id="已选择创建区域方式" transform="translate(-1009.000000, -308.000000)" fill-rule="nonzero">
            <g id="AI自动规划" transform="translate(1009.000000, 308.000000)">
                <path d="M16.9312169,47.9717813 L31.0405644,47.9717813 L31.0405644,50.7936508 L16.9312169,50.7936508 L16.9312169,47.9717813 Z M40.5022928,5.47442679 L42.4973545,7.46666667 L38.5072311,11.459612 L36.5121693,9.46455025 L40.5022928,5.47442679 Z M7.46948854,5.47442679 L11.4567901,9.45890655 L9.46172837,11.4539683 L5.46878309,7.46384479 L7.46948854,5.47442679 Z M42.3280423,22.5749559 L47.9717813,22.5749559 L47.9717813,25.3968254 L42.3280423,25.3968254 L42.3280423,22.5749559 Z M0,22.5749559 L5.64373899,22.5749559 L5.64373899,25.3968254 L0,25.3968254 L0,22.5749559 Z M22.5749559,0 L25.3968254,0 L25.3968254,5.64373899 L22.5749559,5.64373899 L22.5749559,0 Z M23.9858907,8.46560848 C15.5202822,8.46560848 8.46560848,15.5202822 8.46560848,23.9858907 C8.46560848,29.9118166 11.287478,35.2733687 16.9312169,37.8130511 L16.9312169,45.1499118 L31.0405644,45.1499118 L31.0405644,37.8130511 C36.6843034,35.2733686 39.5061728,29.9118166 39.5061728,23.9858907 C39.5061728,15.5202822 32.4514991,8.46560848 23.9858907,8.46560848 L23.9858907,8.46560848 Z M29.6296296,35.2733686 L28.2186949,36.1199295 L28.2186949,42.3280423 L19.7530864,42.3280423 L19.7530864,36.1199295 L18.3421517,35.2733686 C13.8271605,33.015873 11.287478,28.7830688 11.287478,23.9858907 C11.287478,16.9312169 16.9312169,11.287478 23.9858907,11.287478 C31.0405644,11.287478 36.6843034,16.9312169 36.6843034,23.9858907 C36.6843034,28.7830688 34.1446208,33.015873 29.6296296,35.2733686 Z" id="形状" fill="#930CEA"></path>
                <polygon id="路径" fill="#5F6379" points="16.9312169 25.3968254 22.5749559 25.3968254 22.5749559 39.5061728 25.3968254 39.5061728 25.3968254 25.3968254 31.0405644 25.3968254 31.0405644 22.5749559 16.9312169 22.5749559"></polygon>
            </g>
        </g>
    </g>
</svg>