<svg t="1600502423818" class="icon" viewBox="0 0 1024 1024" version="1.1" xmlns="http://www.w3.org/2000/svg" p-id="5982" width="200" height="200"><path d="M512 59.733333c197.632 0 358.4 162.679467 358.4 362.564267a353.962667 353.962667 0 0 1-94.685867 242.346667l-204.8 261.870933a74.5472 74.5472 0 0 1-117.828266 0.477867l-208.896-264.328534a362.359467 362.359467 0 0 1-90.589867-240.298666C153.6 222.276267 314.368 59.665067 512 59.665067z m182.408533 350.071467a182.408533 182.408533 0 0 0-181.589333-182.749867c-48.3328 0-93.7984 19.114667-128 53.930667-34.133333 34.474667-53.248 81.169067-53.0432 129.706667 0.341333 100.7616 81.851733 182.818133 181.589333 182.818133a176.810667 176.810667 0 0 0 127.931734-53.930667 183.637333 183.637333 0 0 0 53.111466-129.706666v-0.068267z m-77.073066 0c0 28.2624-10.717867 54.6816-30.242134 74.478933a102.741333 102.741333 0 0 1-73.728 31.1296 104.925867 104.925867 0 0 1-104.584533-105.130666c0-28.194133 10.717867-54.6816 30.242133-74.410667a105.198933 105.198933 0 0 1 74.274134-31.197867c27.921067 0 54.0672 10.922667 73.728 30.856534 19.797333 19.8656 30.651733 46.2848 30.378666 74.274133z" fill="#FFFFFF" p-id="5983"></path></svg>