<?xml version="1.0" encoding="UTF-8"?>
<svg width="16px" height="16px" viewBox="0 0 16 16" version="1.1" xmlns="http://www.w3.org/2000/svg" xmlns:xlink="http://www.w3.org/1999/xlink">
    <!-- Generator: Sketch 59 (86127) - https://sketch.com -->
    <title>关闭 copy 5</title>
    <desc>Created with Sketch.</desc>
    <g id="行销公司" stroke="none" stroke-width="1" fill="none" fill-rule="evenodd">
        <g id="4.7.1、门店详情-审批者（无权编辑）" transform="translate(-327.000000, -51.000000)" fill="#FFFFFF">
            <g id="一阶详情-含拜访信息" transform="translate(44.000000, 42.000000)">
                <path d="M292.240096,17.0044448 L298.753035,10.4865961 C299.082322,10.1540092 299.082322,9.61819911 298.753035,9.28561224 L298.716595,9.24916492 C298.384486,8.92050086 297.849748,8.92050086 297.517639,9.24916492 L291.002922,15.7759032 L284.489982,9.24649804 C284.157873,8.91783399 283.623134,8.91783399 283.291025,9.24649804 L283.253697,9.28027849 C283.091509,9.4379505 283,9.65454845 283,9.88077041 C283,10.1069924 283.091509,10.3235903 283.253697,10.4812623 L289.768414,16.999111 L283.253697,23.5178487 C282.92441,23.8504356 282.92441,24.3862457 283.253697,24.7188326 L283.290136,24.753502 C283.622246,25.082166 284.156984,25.082166 284.489093,24.753502 L291.00381,18.2347643 L297.51675,24.753502 C297.848859,25.082166 298.383598,25.082166 298.715707,24.753502 L298.752146,24.7170546 C299.081433,24.3844678 299.081433,23.8486576 298.752146,23.5160708 L292.240096,16.999111 L292.240096,17.0044448 Z" id="关闭-copy-5"></path>
            </g>
        </g>
    </g>
</svg>