<?xml version="1.0" standalone="no"?><!DOCTYPE svg PUBLIC "-//W3C//DTD SVG 1.1//EN" "http://www.w3.org/Graphics/SVG/1.1/DTD/svg11.dtd"><svg class="icon" width="128px" height="128.00px" viewBox="0 0 1024 1024" version="1.1" xmlns="http://www.w3.org/2000/svg"><path d="M512 0c-70.565647 0-137.035294 13.342118-199.378824 39.996235-62.343529 26.684235-116.736 63.186824-163.087058 109.537883-46.381176 46.381176-82.853647 100.713412-109.537883 163.087058C13.342118 374.964706 0 441.434353 0 512s13.342118 137.035294 39.996235 199.378824c26.684235 62.343529 63.186824 116.736 109.537883 163.087058 46.381176 46.381176 100.713412 82.853647 163.087058 109.537883C374.964706 1010.657882 441.434353 1024 512 1024s137.035294-13.342118 199.378824-39.996235c62.343529-26.684235 116.736-63.186824 163.087058-109.537883 46.381176-46.381176 82.853647-100.713412 109.537883-163.087058C1010.657882 649.035294 1024 582.565647 1024 512s-13.342118-137.035294-39.996235-199.378824c-26.684235-62.343529-63.186824-116.736-109.537883-163.087058-46.381176-46.381176-100.713412-82.853647-163.087058-109.537883C649.035294 13.342118 582.565647 0 512 0z m0 802.454588c-16.414118 0-30.358588-5.722353-41.863529-17.227294a56.982588 56.982588 0 0 1-17.227295-41.863529c0-16.384 5.752471-30.328471 17.257412-41.833412A56.982588 56.982588 0 0 1 512 684.303059c16.414118 0 30.358588 5.722353 41.863529 17.227294 11.444706 11.504941 17.227294 25.449412 17.227295 41.863529 0 16.414118-5.752471 30.358588-17.257412 41.86353a56.982588 56.982588 0 0 1-41.833412 17.197176z m59.090824-256c0 16.414118-5.752471 30.358588-17.257412 41.86353a56.982588 56.982588 0 0 1-41.833412 17.227294c-16.414118 0-30.358588-5.722353-41.863529-17.227294a56.982588 56.982588 0 0 1-17.227295-41.86353V270.757647c0-16.384 5.752471-30.358588 17.257412-41.833412A56.982588 56.982588 0 0 1 512 211.696941c16.414118 0 30.358588 5.722353 41.863529 17.227294 11.444706 11.474824 17.227294 25.449412 17.227295 41.86353v275.666823z" fill="#F7BA2A" /></svg>