<?xml version="1.0" standalone="no"?><!DOCTYPE svg PUBLIC "-//W3C//DTD SVG 1.1//EN" "http://www.w3.org/Graphics/SVG/1.1/DTD/svg11.dtd"><svg class="icon" width="128px" height="128.00px" viewBox="0 0 1024 1024" version="1.1" xmlns="http://www.w3.org/2000/svg"><path d="M512 512m-483.555556 0a483.555556 483.555556 0 1 0 967.111112 0 483.555556 483.555556 0 1 0-967.111112 0Z" fill="#FFFFFF" /><path d="M512 56.888889a446.008889 446.008889 0 0 0-177.208889 35.555555 456.704 456.704 0 0 0-144.952889 97.393778 456.704 456.704 0 0 0-97.393778 144.952889A446.008889 446.008889 0 0 0 56.888889 512a446.008889 446.008889 0 0 0 35.555555 177.208889 456.704 456.704 0 0 0 97.393778 144.952889 456.704 456.704 0 0 0 144.952889 97.393778A446.008889 446.008889 0 0 0 512 967.111111a446.008889 446.008889 0 0 0 177.208889-35.555555 456.704 456.704 0 0 0 144.952889-97.393778 456.704 456.704 0 0 0 97.393778-144.952889A446.008889 446.008889 0 0 0 967.111111 512a446.008889 446.008889 0 0 0-35.555555-177.208889 456.704 456.704 0 0 0-97.393778-144.952889 456.704 456.704 0 0 0-144.952889-97.393778A446.008889 446.008889 0 0 0 512 56.888889z m0 713.272889a50.631111 50.631111 0 0 1-37.205333-15.303111 50.631111 50.631111 0 0 1-15.36-37.205334 50.631111 50.631111 0 0 1 15.36-37.148444 50.631111 50.631111 0 0 1 37.205333-15.36 50.631111 50.631111 0 0 1 37.205333 15.36c10.24 10.183111 15.36 22.584889 15.36 37.148444a50.631111 50.631111 0 0 1-15.36 37.205334 50.631111 50.631111 0 0 1-37.205333 15.36z m52.508444-227.555556a50.631111 50.631111 0 0 1-15.36 37.205334 50.631111 50.631111 0 0 1-37.148444 15.36 50.631111 50.631111 0 0 1-37.205333-15.36 50.631111 50.631111 0 0 1-15.36-37.205334V297.585778a50.631111 50.631111 0 0 1 15.36-37.205334 50.631111 50.631111 0 0 1 37.205333-15.36 50.631111 50.631111 0 0 1 37.205333 15.36c10.24 10.24 15.36 22.584889 15.36 37.205334v245.020444z" fill="#FF9900" /></svg>