<svg t="1600068417726" class="icon" viewBox="0 0 1024 1024" version="1.1" xmlns="http://www.w3.org/2000/svg" p-id="838" width="200" height="200"><path d="M399.847619 108.026374c0 59.264469 48.011722 106.526007 106.526007 106.526007 59.264469 0 106.526007-48.011722 106.526008-106.526007S565.638095 1.500366 506.373626 1.500366c-58.514286 0-106.526007 48.011722-106.526007 106.526008z m0 0" p-id="839"></path><path d="M578.391209 262.564103H439.607326c-47.261538 0-89.271795 17.254212-119.279121 44.260805v275.317217h104.275458l22.505495 323.328937h127.531135l21.755311-323.328937h105.775825v-270.065935c-29.257143-30.757509-74.268132-49.512088-123.78022-49.512087z m0 0" p-id="840"></path><path d="M673.664469 709.67326v56.263736c118.528938 17.254212 199.548718 54.013187 199.548718 96.023444 0 59.264469-162.03956 107.27619-361.588279 107.27619s-361.588278-48.011722-361.588278-107.27619c0-42.010256 81.769963-78.769231 201.049084-96.023444v-56.263736c-198.048352 21.755311-340.58315 81.769963-340.58315 152.28718 0 88.521612 224.304762 161.289377 501.122344 161.289377s501.122344-72.017582 501.122345-160.539194c0-71.267399-141.784615-131.282051-339.082784-153.037363z m0 0" p-id="841"></path></svg>