<?xml version="1.0" encoding="UTF-8"?>
<svg width="210px" height="159px" viewBox="0 0 210 159" version="1.1" xmlns="http://www.w3.org/2000/svg" xmlns:xlink="http://www.w3.org/1999/xlink">
    <!-- Generator: Sketch 59 (86127) - https://sketch.com -->
    <title>空数据插图</title>
    <desc>Created with Sketch.</desc>
    <g id="行销公司" stroke="none" stroke-width="1" fill="none" fill-rule="evenodd">
        <g id="6.2.1、审批者-待审批-空状态" transform="translate(-535.000000, -254.000000)">
            <g id="空数据插图" transform="translate(535.000000, 254.000000)">
                <rect id="矩形" fill="#FFFFFF" x="48" y="53" width="25" height="26"></rect>
                <rect id="矩形" fill="#FFFFFF" x="115" y="45" width="46" height="25"></rect>
                <rect id="矩形" fill="#FFFFFF" x="89" y="83" width="24" height="12"></rect>
                <rect id="矩形" fill="#FFFFFF" x="43" y="20" width="55" height="12"></rect>
                <g id="undraw_online_connection_6778">
                    <path d="M97.0775914,34.0215054 L44.9385811,34.0215054 C44.4055902,34.020891 43.9736717,33.596909 43.9730458,33.0737116 L43.9730458,20.3779013 C43.9736717,19.8547039 44.4055902,19.4307219 44.9385811,19.4301075 L97.0775914,19.4301075 C97.6105823,19.4307219 98.0425008,19.8547039 98.0431267,20.3779013 L98.0431267,33.0737116 C98.0425008,33.596909 97.6105823,34.020891 97.0775914,34.0215054 L97.0775914,34.0215054 Z M44.9385811,19.8092199 C44.6187757,19.8095632 44.3592613,20.063968 44.3592613,20.377897 L44.3592613,33.0737073 C44.3592613,33.3876355 44.6187766,33.642039 44.9385811,33.6423823 L97.0775914,33.6423823 C97.3973959,33.642039 97.6569112,33.3876355 97.6569112,33.0737073 L97.6569112,20.3779013 C97.6569112,20.0639722 97.3973968,19.8095675 97.0775914,19.8092199 L44.9385811,19.8092199 Z" id="形状" fill="#3F3D56" fill-rule="nonzero"></path>
                    <ellipse id="椭圆形" fill="#930CEA" fill-rule="nonzero" cx="52.8787062" cy="26.4086022" rx="3.81671159" ry="3.80645161"></ellipse>
                    <path d="M61.795462,23.8709677 C61.4380156,23.8709677 61.148248,24.1550021 61.148248,24.5053763 C61.148248,24.8557505 61.4380156,25.1397849 61.795462,25.1397849 L92.3069638,25.1397849 C92.6644103,25.1397849 92.9541779,24.8557505 92.9541779,24.5053763 C92.9541779,24.1550021 92.6644103,23.8709677 92.3069638,23.8709677 L61.795462,23.8709677 Z" id="路径" fill="#E6E6E6" fill-rule="nonzero"></path>
                    <path d="M61.8047005,27.6774194 C61.4421518,27.6774194 61.148248,27.9614543 61.148248,28.311828 C61.148248,28.6622016 61.4421518,28.9462366 61.8047005,28.9462366 L75.1213227,28.9462366 C75.3561363,28.9466501 75.5732968,28.8258235 75.6908276,28.6293668 C75.8083584,28.4329101 75.8083584,28.1907458 75.6908276,27.9942891 C75.5732968,27.7978324 75.3561363,27.6770058 75.1213227,27.6774194 L61.8047005,27.6774194 Z" id="路径" fill="#E6E6E6" fill-rule="nonzero"></path>
                    <path d="M74.188683,80.3333333 L51.288406,80.3333333 C50.7616865,80.3327088 50.3348503,79.9016849 50.3342318,79.369798 L50.3342318,55.286116 C50.3348503,54.754229 50.7616865,54.3232052 51.288406,54.3225806 L74.188683,54.3225806 C74.7154024,54.3232052 75.1422387,54.754229 75.1428571,55.286116 L75.1428571,79.369798 C75.1422387,79.9016849 74.7154024,80.3327088 74.188683,80.3333333 Z M51.288406,54.7079961 C50.9723636,54.7083439 50.7162462,54.966973 50.7159006,55.286116 L50.7159006,79.369798 C50.7162451,79.6889418 50.9723628,79.9475722 51.288406,79.9479201 L74.188683,79.9479201 C74.5047262,79.9475722 74.7608439,79.6889418 74.7611883,79.369798 L74.7611883,55.286116 C74.7608427,54.966973 74.5047253,54.7083439 74.188683,54.7079961 L51.288406,54.7079961 Z" id="形状" fill="#3F3D56" fill-rule="nonzero"></path>
                    <rect id="矩形" fill="#FFFFFF" x="110.765499" y="1.03225806" width="24.8086253" height="25.3763441"></rect>
                    <path d="M56.079688,59.3978495 C55.717109,59.3978495 55.4231806,59.6818839 55.4231806,60.0322581 C55.4231806,60.3826323 55.717109,60.6666667 56.079688,60.6666667 L69.397401,60.6666667 C69.75998,60.6666667 70.0539084,60.3826323 70.0539084,60.0322581 C70.0539084,59.6818839 69.75998,59.3978495 69.397401,59.3978495 L56.079688,59.3978495 Z" id="路径" fill="#E6E6E6" fill-rule="nonzero"></path>
                    <path d="M56.0808336,63.2043011 C55.84602,63.2038875 55.6288595,63.3247141 55.5113287,63.5211708 C55.3937979,63.7176275 55.3937979,63.9597919 55.5113287,64.1562485 C55.6288595,64.3527052 55.84602,64.4735318 56.0808336,64.4731183 L69.3974558,64.4731183 C69.7600045,64.4731183 70.0539084,64.1890833 70.0539084,63.8387097 C70.0539084,63.4883361 69.7600045,63.2043011 69.3974558,63.2043011 L56.0808336,63.2043011 Z" id="路径" fill="#E6E6E6" fill-rule="nonzero"></path>
                    <path d="M62.7386027,75.2580645 C61.0662678,75.2580645 59.5586025,74.2533803 58.9186291,72.7124971 C58.2786557,71.1716138 58.6324061,69.3979815 59.814927,68.2186426 C60.9974479,67.0393036 62.7758618,66.6865088 64.3208967,67.324766 C65.8659315,67.9630231 66.8733154,69.4666383 66.8733154,71.1344776 C66.8707292,73.4108069 65.0210676,75.2554914 62.7386027,75.2580645 L62.7386027,75.2580645 Z" id="路径" fill="#930CEA" fill-rule="nonzero"></path>
                    <path d="M111.719673,0.397849462 L134.61995,0.397849462 C135.146669,0.398474017 135.573506,0.829497846 135.574124,1.36138481 L135.574124,25.4450668 C135.573506,25.9769538 135.146669,26.4079776 134.61995,26.4086022 L111.719673,26.4086022 C111.192953,26.4079776 110.766117,25.9769538 110.765499,25.4450668 L110.765499,1.36138481 C110.766117,0.829497846 111.192953,0.398474017 111.719673,0.397849462 Z M134.61995,26.0231889 C134.935992,26.0228398 135.192109,25.7642098 135.192453,25.4450668 L135.192453,1.36138481 C135.192109,1.04224184 134.935992,0.783611765 134.61995,0.783262729 L111.719673,0.783262729 C111.40363,0.783611765 111.147514,1.04224184 111.14717,1.36138481 L111.14717,25.4450668 C111.147514,25.7642098 111.40363,26.0228398 111.719673,26.0231889 L134.61995,26.0231889 Z" id="形状" fill="#3F3D56" fill-rule="nonzero"></path>
                    <path d="M129.828668,21.3333333 C130.191247,21.3333333 130.485175,21.0492989 130.485175,20.6989247 C130.485175,20.3485505 130.191247,20.0645161 129.828668,20.0645161 L116.510955,20.0645161 C116.148376,20.0645161 115.854447,20.3485505 115.854447,20.6989247 C115.854447,21.0492989 116.148376,21.3333333 116.510955,21.3333333 L129.828668,21.3333333 Z" id="路径" fill="#E6E6E6" fill-rule="nonzero"></path>
                    <path d="M129.828668,17.5268817 C130.191247,17.5268817 130.485175,17.2428473 130.485175,16.8924731 C130.485175,16.5420989 130.191247,16.2580645 129.828668,16.2580645 L116.510955,16.2580645 C116.148376,16.2580645 115.854447,16.5420989 115.854447,16.8924731 C115.854447,17.2428473 116.148376,17.5268817 116.510955,17.5268817 L129.828668,17.5268817 Z" id="路径" fill="#E6E6E6" fill-rule="nonzero"></path>
                    <path d="M123.169749,5.47311828 C124.842083,5.47311828 126.34975,6.4777989 126.989725,8.01868118 C127.6297,9.55956347 127.275952,11.333196 126.093433,12.5125364 C124.910914,13.6918767 123.1325,14.0446739 121.587465,13.4064191 C120.042429,12.7681643 119.03504,11.2645509 119.03504,9.59671174 C119.037622,7.32038115 120.887282,5.47569265 123.169749,5.47311828 Z" id="路径" fill="#930CEA" fill-rule="nonzero"></path>
                    <path d="M44.4469781,50.1983508 C48.5105854,47.0842834 53.2581966,44.9607405 58.3054583,43.9996382 C63.3928599,43.0404491 68.6388761,43.307165 73.6001199,44.7772434 C76.094065,45.5119918 78.4902245,46.5392889 80.7375289,47.8372399 C83.0273606,49.1616941 85.0964086,50.7921223 87.0871699,52.5184122 C89.1038352,54.2671656 91.0542149,56.0937717 93.1594612,57.740121 C99.1698566,62.4937171 106.631432,65.0908446 114.325981,65.1075269 C114.961647,65.1084872 115.596867,65.0911663 116.231639,65.0555232 C116.575769,65.0367761 116.577979,64.5046187 116.231639,64.5234859 C108.388306,64.9508226 100.642931,62.6350594 94.3512949,57.9815563 C92.1693102,56.3671737 90.177007,54.5212991 88.1430514,52.7325777 C86.1711093,50.9983937 84.1463681,49.3114582 81.9091381,47.9181996 C70.7219818,40.944752 56.4043242,41.2676552 45.5499097,48.7382019 C45.0450689,49.0855193 44.5519473,49.448494 44.0667584,49.8221521 C43.7939933,50.0322171 44.1769779,50.406298 44.4469802,50.1983594 L44.4469781,50.1983508 Z" id="路径" fill="#3F3D56" fill-rule="nonzero"></path>
                    <ellipse id="椭圆形" fill="#3F3D56" fill-rule="nonzero" cx="43.6549865" cy="50.1989247" rx="2.86253369" ry="2.85483871"></ellipse>
                    <ellipse id="椭圆形" fill="#3F3D56" fill-rule="nonzero" cx="147.978437" cy="86.9946237" rx="2.86253369" ry="2.85483871"></ellipse>
                    <path d="M162.602505,70.8172043 L116.815274,70.8172043 C116.284882,70.8165904 115.85507,70.3929408 115.854447,69.8701536 L115.854447,46.3879259 C115.855062,45.8651329 116.284876,45.4414741 116.815274,45.4408602 L162.602516,45.4408602 C163.132907,45.4414741 163.56272,45.8651237 163.563342,46.3879109 L163.563342,69.8701386 C163.562728,70.3929358 163.132907,70.8165963 162.602505,70.8172043 Z M116.815274,45.8196882 C116.497028,45.8200301 116.238777,46.0742344 116.238777,46.3879173 L116.238777,69.870145 C116.238777,70.1838283 116.497028,70.4380332 116.815274,70.4383763 L162.602516,70.4383763 C162.920762,70.4380332 163.179013,70.1838283 163.179013,69.870145 L163.179013,46.3879173 C163.179013,46.0742344 162.920761,45.8200301 162.602516,45.8196882 L116.815274,45.8196882 Z" id="形状" fill="#3F3D56" fill-rule="nonzero"></path>
                    <ellipse id="椭圆形" fill="#930CEA" fill-rule="nonzero" cx="124.760108" cy="53.688172" rx="3.81671159" ry="3.80645161"></ellipse>
                    <path d="M133.686191,51.1505376 C133.451774,51.1501241 133.234981,51.2709507 133.117649,51.4674074 C133.000317,51.6638641 133.000317,51.9060284 133.117649,52.1024851 C133.234981,52.2989418 133.451774,52.4197684 133.686191,52.4193548 L158.45517,52.4193548 C158.817105,52.4193548 159.110512,52.1353198 159.110512,51.7849462 C159.110512,51.4345726 158.817105,51.1505376 158.45517,51.1505376 L133.686191,51.1505376 Z" id="路径" fill="#E6E6E6" fill-rule="nonzero"></path>
                    <path d="M133.687303,54.9569892 C133.452489,54.9565757 133.235329,55.0774023 133.117798,55.273859 C133.000267,55.4703157 133.000267,55.71248 133.117798,55.9089367 C133.235329,56.1053934 133.452489,56.22622 133.687303,56.2258065 L147.003925,56.2258065 C147.366474,56.2258065 147.660377,55.9417715 147.660377,55.5913978 C147.660377,55.2410242 147.366474,54.9569892 147.003925,54.9569892 L133.687303,54.9569892 Z" id="路径" fill="#E6E6E6" fill-rule="nonzero"></path>
                    <path d="M121.844247,61.3010753 C121.347574,61.3010753 120.943396,61.5857079 120.943396,61.9354828 C120.943396,62.2852577 121.347574,62.5698925 121.844247,62.5698925 L158.209662,62.5698925 C158.706335,62.5698925 159.110512,62.2852577 159.110512,61.9354828 C159.110512,61.5857079 158.706335,61.3010753 158.209662,61.3010753 L121.844247,61.3010753 Z" id="路径" fill="#E6E6E6" fill-rule="nonzero"></path>
                    <path d="M121.844247,65.1075269 C121.347574,65.1075269 120.943396,65.3921717 120.943396,65.7419355 C120.943396,66.0916992 121.347574,66.3763441 121.844247,66.3763441 L158.209662,66.3763441 C158.706335,66.3763441 159.110512,66.0916992 159.110512,65.7419355 C159.110512,65.3921717 158.706335,65.1075269 158.209662,65.1075269 L121.844247,65.1075269 Z" id="路径" fill="#E6E6E6" fill-rule="nonzero"></path>
                    <path d="M113.09024,89.5440223 C115.689273,88.4222059 118.591055,89.4002384 121.040781,90.4342042 C122.302453,90.9667228 123.550604,91.5351197 124.85628,91.955608 C125.954703,92.3084206 127.079611,92.5736682 128.220344,92.7488373 C130.509508,93.0977039 132.83762,93.1118791 135.130903,92.7909138 C137.435817,92.4711135 139.68211,91.8212131 141.799991,90.8614051 C143.906028,89.9116527 145.852735,88.6452658 147.571843,87.1066544 C147.790562,86.9100997 148.00502,86.7090271 148.215217,86.5034364 C148.465376,86.2595715 148.081103,85.8774361 147.831053,86.1211964 C146.175626,87.7268125 144.275246,89.0616333 142.200432,90.0761266 C140.134075,91.0871461 137.930063,91.7916471 135.658539,92.1672092 C133.379572,92.5495423 131.055846,92.5894557 128.764974,92.2856164 C127.622175,92.131866 126.49351,91.8877302 125.3897,91.5555279 C124.121877,91.1452416 122.878143,90.6646264 121.664341,90.1159402 C119.191735,89.0593641 116.444513,88.0247442 113.727579,88.7534178 C113.416195,88.8390895 113.111532,88.9473271 112.816032,89.077263 C112.496116,89.2153481 112.772429,89.6812048 113.09024,89.5440288 L113.09024,89.5440223 Z" id="路径" fill="#3F3D56" fill-rule="nonzero"></path>
                    <path d="M112.673854,96.1935484 L91.0458221,96.1935484 L96.1356249,87.4142403 C96.3212806,87.0939739 96.6644137,86.8966776 97.0357579,86.8966776 C97.4071021,86.8966776 97.7502352,87.0939739 97.9358909,87.4142403 L100.110186,91.1646032 L103.807247,84.7877645 C104.039693,84.3867955 104.469296,84.1397849 104.934218,84.1397849 C105.39914,84.1397849 105.828743,84.3867955 106.06119,84.7877645 L112.673854,96.1935484 Z" id="路径" fill="#930CEA" fill-rule="nonzero"></path>
                    <path d="M112.355798,96.1935484 L89.4555223,96.1935484 C88.9288026,96.192934 88.5019662,95.768952 88.5013477,95.2457546 L88.5013477,82.5499443 C88.5019662,82.0267469 88.9288026,81.6027649 89.4555223,81.6021505 L112.355798,81.6021505 C112.882518,81.6027649 113.309355,82.0267469 113.309973,82.5499443 L113.309973,95.2457546 C113.309355,95.768952 112.882518,96.192934 112.355798,96.1935484 Z M89.4555223,81.9812693 C89.1394798,81.9816136 88.8833623,82.2360174 88.8830167,82.5499464 L88.8830167,95.2457568 C88.8833611,95.5596867 89.139479,95.8140917 89.4555223,95.8144339 L112.355798,95.8144339 C112.671842,95.8140917 112.92796,95.5596867 112.928304,95.2457568 L112.928304,82.5499443 C112.927958,82.2360153 112.671841,81.9816115 112.355798,81.9812693 L89.4555223,81.9812693 Z" id="形状" fill="#3F3D56" fill-rule="nonzero"></path>
                    <path d="M157.931613,84.7854038 L153.800153,86.8711316 C152.325537,87.6155836 150.902443,87.4883587 150.35745,85.9359619 L150.35745,85.9359619 C150.095008,85.1884106 150.173751,84.3642189 150.573064,83.6791595 C150.972378,82.9941002 151.6525,82.5163872 152.435377,82.3710856 L156.361924,81.6423235 L173.178618,76.0953573 L183.365435,68.9139785 L187.09973,74.8288706 L175.329037,81.1434775 L157.931613,84.7854038 Z" id="路径" fill="#FFB8B8" fill-rule="nonzero"></path>
                    <polygon id="路径" fill="#FFB8B8" fill-rule="nonzero" points="177.012707 153.924731 173.74124 153.410323 174.104812 147.580645 177.557951 147.580645"></polygon>
                    <polygon id="路径" fill="#FFB8B8" fill-rule="nonzero" points="207.455526 148.531354 204.233979 149.483871 201.730458 144.006245 204.866948 142.505376"></polygon>
                    <path d="M205.54717,143.102475 L201.697447,144.669837 L183.323766,120.636942 L177.54918,148.849462 L173.699457,148.152857 C171.229916,123.829933 169.216185,99.0207426 171.687102,87.2869476 L185.948578,86.6774194 L192.423112,107.227292 L195.572886,121.159398 L205.54717,143.102475 Z" id="路径" fill="#2F2E41" fill-rule="nonzero"></path>
                    <path d="M176.690606,158.941274 L176.690606,158.941274 C176.126607,159.0594 175.538747,158.998335 175.012748,158.766981 L173.18035,157.961029 C171.643879,157.883921 170.597687,158.183045 169.742209,157.091907 C169.25074,156.456716 169.150529,155.610916 169.480468,154.882752 L169.480468,154.882752 C169.807464,154.152215 170.512281,153.650956 171.324052,153.571613 L173.840879,152.021505 L173.972983,153.183585 C175.123281,153.820539 176.488974,153.545389 177.936103,152.925345 L178.726036,155.627655 C178.931923,156.331975 178.829825,157.088205 178.444063,157.716215 C178.0583,158.344225 177.423405,158.787797 176.690606,158.941274 Z" id="路径" fill="#2F2E41" fill-rule="nonzero"></path>
                    <path d="M208.681547,153.098799 L208.681547,153.098799 C208.184504,153.392753 207.604886,153.523005 207.027212,153.470563 L205.014801,153.287876 C203.527439,153.707198 202.632181,154.328973 201.453788,153.560077 C200.77402,153.110374 200.39607,152.333714 200.466616,151.53151 L200.466616,151.53151 C200.533569,150.72798 201.036543,150.022459 201.782244,149.686083 L203.658441,147.396094 L204.172417,148.464969 C205.479498,148.704937 206.6867,148.003567 207.856117,146.946237 L209.510534,149.276897 C209.941733,149.884349 210.097304,150.640275 209.940191,151.364616 C209.783078,152.088957 209.327346,152.716874 208.681547,153.098799 Z" id="路径" fill="#2F2E41" fill-rule="nonzero"></path>
                    <ellipse id="椭圆形" fill="#FFB8B8" fill-rule="nonzero" cx="180.738544" cy="55.5913978" rx="6.36118598" ry="6.34408602"></ellipse>
                    <polygon id="路径" fill="#FFB8B8" fill-rule="nonzero" points="189.008086 68.9139785 180.546352 67.2146395 179.466307 60.5873656 185.407339 59.3978495"></polygon>
                    <path d="M186.624165,87.311828 L171.832884,87.311828 L175.16688,79.0105035 C174.924611,76.1541163 176.14531,74.0532235 177.892441,72.2241599 L180.108959,66.7052811 C183.690319,64.3676927 186.390299,64.5423227 189.265471,67.5784398 C192.67437,72.3650798 190.314762,79.5605484 186.624165,87.311828 Z" id="路径" fill="#930CEA" fill-rule="nonzero"></path>
                    <path d="M179.501301,105.017485 L179.085495,109.590643 C178.937085,111.222913 178.079787,112.350012 176.481752,111.984803 L176.481752,111.984803 C175.712225,111.808937 175.057766,111.306075 174.68971,110.607864 C174.321654,109.909654 174.276651,109.085618 174.566482,108.351489 L176.020148,104.669423 L180.197531,87.6143161 L179.501301,75.2580645 L186.463612,75.2580645 L185.593323,88.4844747 L179.501301,105.017485 Z" id="路径" fill="#FFB8B8" fill-rule="nonzero"></path>
                    <path d="M187.09973,75.8924731 L178.830189,75.8924731 L179.40992,70.5594404 C179.48885,68.6477396 181.029215,67.1109202 182.962164,67.0153732 L182.962164,67.0153732 C183.960401,66.9660301 184.937123,67.3135047 185.674657,67.9803576 C186.41219,68.6472105 186.849241,69.578022 186.888405,70.5653484 L187.09973,75.8924731 Z" id="路径" fill="#930CEA" fill-rule="nonzero"></path>
                    <ellipse id="椭圆形" fill="#2F2E41" fill-rule="nonzero" cx="188.690027" cy="47.0268817" rx="2.22641509" ry="2.22043011"></ellipse>
                    <path d="M186.112837,46.2690013 C186.18991,45.0990443 187.179244,44.189696 188.371968,44.1925181 C188.325296,44.1866979 188.279044,44.1796252 188.231454,44.1766148 C186.986228,44.0986436 185.912287,45.0272986 185.832231,46.2512655 C185.752174,47.4752324 186.696291,48.5314242 187.941423,48.6108382 C187.989013,48.6138466 188.035807,48.6126494 188.082853,48.6127537 C186.899583,48.4654179 186.036861,47.4390262 186.112837,46.2690013 Z" id="路径" fill="#2F2E41" fill-rule="nonzero"></path>
                    <path d="M185.878994,47.3452131 C183.793298,45.6274124 177.810938,47.8106629 177.4249,48.9655612 C174.604438,49.3471737 172.469003,50.9809147 172.469003,53.8858512 L172.469003,53.8858683 C174.145856,54.5678761 176.052952,54.4838292 178.114514,53.8858683 C181.400817,56.5447747 181.6261,59.8873121 179.627521,63.7264804 L182.086313,63.7752976 L185.134076,59.3528745 L185.279823,63.8387097 L190.915957,63.7264761 L190.915957,57.2979903 C190.934179,55.1605837 190.438666,53.0496855 189.470543,51.1405004 C188.59225,49.4464292 187.229238,48.4572656 185.878994,47.3452131 Z" id="路径" fill="#2F2E41" fill-rule="nonzero"></path>
                    <ellipse id="椭圆形" fill="#FFB8B8" fill-rule="nonzero" cx="180.738544" cy="57.1774194" rx="1.2722372" ry="1.58602151"></ellipse>
                    <path d="M38.884097,59.5542382 C38.884097,59.5542382 39.597152,47.5590228 43.298982,50.2846455 C47.0008119,53.0102681 41.6823438,60.6666667 41.6823438,60.6666667 L38.884097,59.5542382 Z" id="路径" fill="#FFB9B9" fill-rule="nonzero"></path>
                    <path d="M25.7064691,94.2903226 C25.7064691,94.2903226 33.7446298,103.166563 29.2474155,103.776688 C24.7502012,104.386812 22.9811321,95.4146324 22.9811321,95.4146324 L25.7064691,94.2903226 Z" id="路径" fill="#FFB9B9" fill-rule="nonzero"></path>
                    <path d="M15.6185416,52.4657262 L15.6185416,52.4657262 C17.648305,52.9926683 19.1592088,54.6698835 19.4512235,56.7202872 L21.9671259,74.3858911 L25.4941221,88.4774267 C25.4941221,88.4774267 27.2576092,90.0431516 26.5522143,90.9130005 C25.8468195,91.7828494 27.4339623,95.4362092 27.4339623,95.4362092 L23.0252182,96.827957 C23.0252182,96.827957 22.4961676,93.1745951 21.6144285,93.0006266 C20.8395235,92.8477379 12.1649951,69.9876388 10.074081,64.4496927 C9.78577778,63.6860956 9.62264151,63.2518304 9.62264151,63.2518304 C9.62264151,63.2518304 9.97534771,51.5958795 15.6185416,52.4657262 Z" id="路径" fill="#575A89" fill-rule="nonzero"></path>
                    <path d="M16.210165,145.043011 L18.945968,149.748044 C21.064573,154.137697 19.1818901,154.935077 13.9873241,152.759162 L12.8032345,147.20354 L16.210165,145.043011 Z" id="路径" fill="#FFB9B9" fill-rule="nonzero"></path>
                    <path d="M17.4285899,151.24877 C17.4285899,151.24877 18.690154,149.176068 19.1464483,149.523032 C19.6027427,149.869996 21.484789,151.373291 21.484789,151.373291 L23.9362426,153.742711 C23.9362426,153.742711 32.2186205,154.626355 26.9558091,157.554778 C21.6929978,160.4832 18.7846014,158.055108 18.7846014,158.055108 C18.7846014,158.055108 11.41352,158.441935 11.5324204,156.366642 C11.6513209,154.29135 14.0285476,151.008126 14.0285476,151.008126 C14.0285476,151.008126 17.0246584,153.035144 17.4285899,151.24877 Z" id="路径" fill="#2F2E41" fill-rule="nonzero"></path>
                    <path d="M4.53369272,91.2630176 L7.00749614,121.779632 C7.00749614,121.779632 7.08995512,140.022347 9.72867007,143.553195 C12.367385,147.084044 12.4498354,148.849462 12.4498354,148.849462 L17.8921833,145.991156 C17.8921833,145.991156 15.0885504,141.228365 15.6657696,140.499248 C16.0215782,140.036852 16.2747779,139.501278 16.4079068,138.929461 L14.9236303,120.098271 L17.7272653,87.311828 L4.53369272,91.2630176 Z" id="路径" fill="#2F2E41" fill-rule="nonzero"></path>
                    <polygon id="路径" fill="#FFB9B9" fill-rule="nonzero" points="10.8948787 144.455114 8.55898198 150.752688 3.26145553 148.493401 6.05626639 143.774194"></polygon>
                    <path d="M7.45679228,148.64984 C7.45679228,148.64984 9.42955111,147.389785 9.67614677,147.893809 C9.92274243,148.397833 10.9091208,150.539924 10.9091208,150.539924 L12.0187959,153.690057 C12.0187959,153.690057 18.8001496,158.100244 13.0051742,158.352252 C7.21019877,158.604259 5.73063341,155.20213 5.73063341,155.20213 C5.73063341,155.20213 -0.804120406,152.303986 0.182264379,150.539913 C1.16864916,148.775841 4.62096691,146.946237 4.62096691,146.946237 C4.62096691,146.946237 6.34712148,150.035889 7.45679228,148.64984 Z" id="路径" fill="#2F2E41" fill-rule="nonzero"></path>
                    <path d="M25.4407895,91.3166492 L26.7978437,119.131442 C26.7978437,119.131442 14.4147348,144.281346 13.0576806,144.947568 C12.2407307,145.361751 11.6289618,146.082562 11.3613645,146.946237 L3.89757412,145.114124 L7.29021512,139.784342 L14.7540055,121.962889 C14.7540055,121.962889 15.9414189,121.463221 16.2806896,119.797664 C16.6199603,118.132107 17.2984797,118.132107 15.6021636,117.798997 C13.9058475,117.465887 13.9058475,115.800329 13.9058475,115.800329 L8.30799642,90.483871 L25.4407895,91.3166492 Z" id="路径" fill="#2F2E41" fill-rule="nonzero"></path>
                    <ellipse id="椭圆形" fill="#FFB9B9" fill-rule="nonzero" transform="translate(19.480489, 40.747860) rotate(-80.782520) translate(-19.480489, -40.747860) " cx="19.480489" cy="40.7478596" rx="6.69147426" ry="6.71489675"></ellipse>
                    <path d="M13.3625775,41 C13.3625775,41 12.867664,49.6162346 12.2077852,50.4609634 C11.5479063,51.3056923 19.1365861,51.1367461 19.1365861,51.1367461 C19.1365861,51.1367461 18.6416727,43.8720789 19.1365861,43.1962963 C19.6314996,42.5205137 13.3625775,41 13.3625775,41 Z" id="路径" fill="#FFB9B9" fill-rule="nonzero"></path>
                    <path d="M26.1617251,93.0215054 C26.1617251,93.0215054 7.38597806,91.3575225 3.89757412,93.0215054 C3.89757412,93.0215054 5.18175494,88.2496946 4.84993641,87.7511472 C4.60861384,87.386409 5.27440557,73.7939783 5.06540299,65.9531874 C4.94689637,61.528849 3.92773945,57.2081049 6.89040492,53.9233034 C7.89878852,52.8075069 9.02352406,51.8708421 10.2107449,51.4133007 C10.2107449,51.4133007 9.87892639,48.2515174 11.5401737,48.085335 C11.5401737,48.085335 17.8554992,47.4184469 20.1803836,49.4169529 C20.9237433,50.0514678 21.3913058,51.9852274 21.4408631,53.6513685 C20.2902715,59.318838 20.6975034,65.6078732 21.7532896,72.1321536 C21.8179296,72.5465307 21.8890336,72.9630659 21.9601375,73.3796012 C23.0805551,79.8499263 24.7741203,86.5209653 26.1617251,93.0215054 Z" id="路径" fill="#575A89" fill-rule="nonzero"></path>
                    <path d="M15.944983,42.5374034 C16.5164062,42.5032144 17.07436,42.6968483 17.6418185,42.7723888 C19.6720231,43.0426504 21.7840623,41.5654715 22.2323272,39.5617296 C22.2682581,39.2948964 22.3475734,39.0357745 22.4671175,38.7946727 C22.7795739,38.2831616 23.4911734,38.185633 24.0777877,38.3032542 C24.664402,38.4208754 25.2204589,38.6961645 25.817868,38.7275971 C26.740285,38.7761242 27.6258338,38.206725 28.1174157,37.4226197 C28.5819706,36.613699 28.7795235,35.6781996 28.6818228,34.7499051 L28.2396256,35.2152591 C28.0599415,34.8341004 27.9905688,34.4100222 28.0394013,33.9912802 C27.5628879,33.864032 27.0546679,33.9944252 26.6976733,34.3355251 C26.3077654,34.3771335 26.6020385,33.6103556 26.3123654,33.3453631 C26.171479,33.2585711 26.0035642,33.2270726 25.8409142,33.2569254 C25.0114201,33.2649444 24.3404017,32.6287815 23.6867473,32.1166664 C22.5541955,31.2313265 21.2297903,30.6255867 19.820578,30.3484062 C18.8839227,30.1652271 17.8879051,30.1357955 16.9996116,30.4855138 C16.2825405,30.8082777 15.6353707,31.2685873 15.0945653,31.8405074 C13.7038601,33.1813673 12.4723753,34.756826 11.8938155,36.6023222 C11.4234658,38.1139341 11.4101414,39.7313631 11.8555234,41.2505594 C12.0886533,42.0395187 12.7912455,44.7415046 13.8198204,44.8044158 C15.1122535,44.8834837 14.3362885,42.6336405 15.944983,42.5374034 Z" id="路径" fill="#2F2E41" fill-rule="nonzero"></path>
                    <path d="M18.748404,53.0537634 L21.1411668,53.3099757 C21.1411668,53.3099757 23.4899896,57.8647639 23.319415,58.8148218 C23.1488404,59.7648797 22.7773743,59.1880802 23.8345491,60.7080902 C24.8917238,62.2281001 27.8915627,66.1570232 28.2630418,66.7338031 C28.6345208,67.3105831 38.7616801,59.5874276 38.1320732,57.27343 C38.1320732,57.27343 41.3305301,59.5669114 42.7008086,59.8721872 C42.7008086,59.8721872 32.2639579,73.5535232 30.8095494,75.3044118 C29.3551408,77.0553004 28.1845997,76.6957151 26.185851,75.6575847 C24.1871023,74.6194543 14.0754717,64.2646031 14.0754717,64.2646031 L18.748404,53.0537634 Z" id="路径" fill="#575A89" fill-rule="nonzero"></path>
                    <path d="M21.7088949,73.3548387 L13.4393531,65.150248 L15.5320359,64.4731183 L21.5022102,72.1201984 C21.5668056,72.5303339 21.6378578,72.9425927 21.7088949,73.3548387 Z" id="路径" fill="#000000" fill-rule="nonzero" opacity="0.1"></path>
                </g>
            </g>
        </g>
    </g>
</svg>