<?xml version="1.0" encoding="UTF-8"?>
<svg width="18px" height="18px" viewBox="0 0 18 18" version="1.1" xmlns="http://www.w3.org/2000/svg" xmlns:xlink="http://www.w3.org/1999/xlink">
    <!-- Generator: Sketch 59 (86127) - https://sketch.com -->
    <title>等待中-icon</title>
    <desc>Created with Sketch.</desc>
    <g id="行销公司" stroke="none" stroke-width="1" fill="none" fill-rule="evenodd">
        <g id="等待审批" transform="translate(-467.000000, -506.000000)">
            <g id="等待中-icon" transform="translate(467.000000, 506.000000)">
                <g id="编组-2备份-2">
                    <g id="Group-6备份-3" transform="translate(1.000000, 1.000000)" stroke="#000000" stroke-opacity="0.15">
                        <circle id="Oval-1-Copy-10" cx="8" cy="8" r="7.5"></circle>
                    </g>
                    <g id="Group-6备份-4" transform="translate(1.000000, 1.000000)" fill="#BABABA" stroke="#19BE6B">
                        <circle id="Oval-1-Copy-10" cx="8" cy="8" r="8"></circle>
                    </g>
                    <g id="check-circle备份-3" fill="#FFFFFF" fill-rule="nonzero">
                        <path d="M9,0.25 C4.16796875,0.25 0.25,4.16796875 0.25,9 C0.25,13.8320312 4.16796875,17.75 9,17.75 C13.8320312,17.75 17.75,13.8320312 17.75,9 C17.75,4.16796875 13.8320312,0.25 9,0.25 Z M9,16.265625 C4.98828125,16.265625 1.734375,13.0117187 1.734375,9 C1.734375,4.98828125 4.98828125,1.734375 9,1.734375 C13.0117187,1.734375 16.265625,4.98828125 16.265625,9 C16.265625,13.0117187 13.0117187,16.265625 9,16.265625 Z" id="形状"></path>
                    </g>
                </g>
                <circle id="椭圆形备份-5" fill="#FFFFFF" cx="5" cy="9" r="1"></circle>
                <circle id="椭圆形备份-6" fill="#FFFFFF" cx="9" cy="9" r="1"></circle>
                <circle id="椭圆形备份-7" fill="#FFFFFF" cx="13" cy="9" r="1"></circle>
            </g>
        </g>
    </g>
</svg>