<?xml version="1.0" encoding="UTF-8"?>
<svg width="50px" height="50px" viewBox="0 0 50 50" version="1.1" xmlns="http://www.w3.org/2000/svg" xmlns:xlink="http://www.w3.org/1999/xlink">
    <!-- Generator: Sketch 59 (86127) - https://sketch.com -->
    <title>我想用计划拜访</title>
    <desc>Created with Sketch.</desc>
    <g id="行销公司" stroke="none" stroke-width="1" fill="none" fill-rule="evenodd">
        <g id="我想用计划拜访" fill-rule="nonzero">
            <path d="M25,50 C11.2158203,50 0,38.7841797 0,25 C0,11.2158203 11.2158203,0 25,0 C38.7841797,0 50,11.2158203 50,25 C50,38.7841797 38.7841797,50 25,50 Z M25,4.16503906 C13.5107422,4.16503906 4.16503906,13.5107422 4.16503906,25 C4.16503906,36.4892578 13.5107422,45.8349609 25,45.8349609 C36.4892578,45.8349609 45.8349609,36.4892578 45.8349609,25 C45.8349609,13.5107422 36.4892578,4.16503906 25,4.16503906 Z" id="形状" fill="#3688FF"></path>
            <path d="M30.8525037,34.0425532 C30.3737928,34.0425532 29.8900953,33.8830099 29.4911696,33.5489661 L23.1083576,28.2291939 C22.6246601,27.8253499 22.3404255,27.2270625 22.3404255,26.593875 L22.3404255,19.1501826 C22.3404255,17.9735507 23.2928608,17.0212766 24.4696917,17.0212766 C25.6465227,17.0212766 26.5989579,17.9735507 26.5989579,19.1501826 L26.5989579,25.6017151 L32.2138378,30.283314 C33.1164073,31.036159 33.2360851,32.3773199 32.4880993,33.2797368 C32.0642407,33.7783096 31.4608655,34.0425532 30.8525037,34.0425532 L30.8525037,34.0425532 Z" id="路径" fill="#5F6379"></path>
        </g>
    </g>
</svg>