<?xml version="1.0" encoding="UTF-8"?>
<svg width="18px" height="18px" viewBox="0 0 18 18" version="1.1" xmlns="http://www.w3.org/2000/svg" xmlns:xlink="http://www.w3.org/1999/xlink">
    <!-- Generator: Sketch 59 (86127) - https://sketch.com -->
    <title>驳回icon</title>
    <desc>Created with Sketch.</desc>
    <g id="行销公司" stroke="none" stroke-width="1" fill="none" fill-rule="evenodd">
        <g id="审批通过备份" transform="translate(-467.000000, -483.000000)">
            <g id="驳回icon" transform="translate(467.000000, 483.000000)">
                <g id="编组-2备份-4" transform="translate(1.000000, 1.000000)" fill="#FFFFFF" stroke="#FFFFFF">
                    <g id="Group-6备份-4">
                        <circle id="Oval-1-Copy-10" cx="8" cy="8" r="8"></circle>
                    </g>
                </g>
                <g id="编组-4">
                    <path d="M9,18 C7.75960892,18 6.59135077,17.7656273 5.49519231,17.2968751 C4.39903385,16.8281227 3.44351354,16.1863023 2.62860591,15.3713941 C1.81369772,14.5564865 1.17187726,13.6009662 0.703124862,12.5048077 C0.234372655,11.4086492 0,10.2403911 0,9 C0,7.75960892 0.234372655,6.59135077 0.703124862,5.49519231 C1.17187726,4.39903385 1.81369772,3.44351354 2.62860591,2.62860646 C3.44351354,1.81369662 4.39903385,1.17187754 5.49519231,0.703124308 C6.59135077,0.234373846 7.75960892,0 9,0 C10.2403911,0 11.4086492,0.234373846 12.5048077,0.703124308 C13.6009662,1.17187754 14.5564865,1.81369662 15.3713935,2.62860646 C16.1863034,3.44351354 16.8281225,4.39903385 17.2968757,5.49519231 C17.7656262,6.59135077 18,7.75960892 18,9 C18,10.2403911 17.7656262,11.4086492 17.2968757,12.5048077 C16.8281225,13.6009662 16.1863034,14.5564865 15.3713935,15.3713941 C14.5564865,16.1863023 13.6009662,16.8281227 12.5048077,17.2968751 C11.4086492,17.7656273 10.2403911,18 9,18 L9,18 Z M13.1322129,6.38221292 C13.2187514,6.29567169 13.2620178,6.19110554 13.2620178,6.06850892 C13.2620178,5.94591231 13.2187514,5.84134615 13.1322129,5.75480769 L12.2019231,4.84615385 C12.1153846,4.75961538 12.014424,4.71634615 11.8990385,4.71634615 C11.7836529,4.71634615 11.6826923,4.75961538 11.5961538,4.84615385 L9,7.44230769 L6.38221292,4.84615385 C6.29567169,4.75961538 6.19471108,4.71634615 6.07932554,4.71634615 C5.96394277,4.71634615 5.86298215,4.75961538 5.77644369,4.84615385 L4.84615385,5.75480769 C4.77403754,5.84134615 4.73798215,5.94591231 4.73798215,6.06850892 C4.73798215,6.19110554 4.77403754,6.29567169 4.84615385,6.38221292 L7.46394092,8.97836677 L4.84615385,11.5745206 C4.77403754,11.6610591 4.73798215,11.7656252 4.73798215,11.8882218 C4.73798215,12.0108185 4.77403754,12.1153846 4.84615385,12.2019231 L5.77644369,13.1105769 C5.86298215,13.1971154 5.96394277,13.2403846 6.07932554,13.2403846 C6.19471108,13.2403846 6.29567169,13.1971154 6.38221292,13.1105769 L9,10.5144231 L11.5961538,13.1105769 C11.6826923,13.1971154 11.7836529,13.2403846 11.8990385,13.2403846 C12.014424,13.2403846 12.1153846,13.1971154 12.2019231,13.1105769 L13.1322129,12.2019231 C13.2187514,12.1153846 13.2620178,12.0108185 13.2620178,11.8882218 C13.2620178,11.7656252 13.2187514,11.6610591 13.1322129,11.5745206 L10.5144231,8.97836677 L13.1322129,6.38221292 Z" id="错误-icon" fill="#ED3F14"></path>
                    <circle id="椭圆形" stroke="#FFFFFF" cx="9" cy="9" r="8.5"></circle>
                </g>
            </g>
        </g>
    </g>
</svg>