<?xml version="1.0" encoding="UTF-8"?>
<svg width="12px" height="12px" viewBox="0 0 12 12" version="1.1" xmlns="http://www.w3.org/2000/svg" xmlns:xlink="http://www.w3.org/1999/xlink">
    <!-- Generator: Sketch 59 (86127) - https://sketch.com -->
    <title>产品编码</title>
    <desc>Created with Sketch.</desc>
    <g id="行销公司" stroke="none" stroke-width="1" fill="none" fill-rule="evenodd">
        <g id="【YNGM-1353】5.11.4、门店详情" transform="translate(-66.000000, -181.000000)" fill-rule="nonzero">
            <g id="产品编码" transform="translate(65.000000, 180.000000)">
                <rect id="矩形" fill="#000000" opacity="0" x="0" y="0" width="14" height="14"></rect>
                <path d="M2.99960937,10.4931641 L2.16972656,10.4931641 C1.88535156,10.4931641 1.65429687,10.2621094 1.65429687,9.97773437 L1.65429687,2.2640625 C1.65429687,1.9796875 1.88535156,1.74863281 2.16972656,1.74863281 L2.99960937,1.74863281 C3.28398437,1.74863281 3.51503906,1.9796875 3.51503906,2.2640625 L3.51503906,9.97773438 C3.51367187,10.2621094 3.28261719,10.4931641 2.99960937,10.4931641 L2.99960937,10.4931641 Z M7.45253906,10.4931641 L6.91660156,10.4931641 C6.63222656,10.4931641 6.40117187,10.2621094 6.40117187,9.97773437 L6.40117187,2.2640625 C6.40117187,1.9796875 6.63222656,1.74863281 6.91660156,1.74863281 L7.45253906,1.74863281 C7.73691406,1.74863281 7.96796875,1.9796875 7.96796875,2.2640625 L7.96796875,9.97773438 C7.96660156,10.2621094 7.73691406,10.4931641 7.45253906,10.4931641 L7.45253906,10.4931641 Z M9.99960937,10.4931641 L8.97011719,10.4931641 C8.68574219,10.4931641 8.4546875,10.2621094 8.4546875,9.97773437 L8.4546875,2.2640625 C8.4546875,1.9796875 8.68574219,1.74863281 8.97011719,1.74863281 L9.99960937,1.74863281 C10.2839844,1.74863281 10.5150391,1.9796875 10.5150391,2.2640625 L10.5150391,9.97773438 C10.5136719,10.2621094 10.2826172,10.4931641 9.99960937,10.4931641 L9.99960937,10.4931641 Z M4.93417969,10.4931641 L4.834375,10.4931641 C4.55,10.4931641 4.31894531,10.2621094 4.31894531,9.97773437 L4.31894531,2.2640625 C4.31894531,1.9796875 4.55,1.74863281 4.834375,1.74863281 L4.93417969,1.74863281 C5.21855469,1.74863281 5.44960937,1.9796875 5.44960937,2.2640625 L5.44960937,9.97773438 C5.44824219,10.2621094 5.21855469,10.4931641 4.93417969,10.4931641 L4.93417969,10.4931641 Z M11.834375,10.4931641 L11.7345703,10.4931641 C11.4501953,10.4931641 11.2191406,10.2621094 11.2191406,9.97773437 L11.2191406,2.2640625 C11.2191406,1.9796875 11.4501953,1.74863281 11.7345703,1.74863281 L11.834375,1.74863281 C12.11875,1.74863281 12.3498047,1.9796875 12.3498047,2.2640625 L12.3498047,9.97773438 C12.3484375,10.2621094 12.11875,10.4931641 11.834375,10.4931641 L11.834375,10.4931641 Z M11.834375,12.2445312 L2.16835937,12.2445312 C1.88398437,12.2445312 1.65292969,12.0134766 1.65292969,11.7291016 L1.65292969,11.7263672 C1.65292969,11.4419922 1.88398437,11.2109375 2.16835937,11.2109375 L11.834375,11.2109375 C12.11875,11.2109375 12.3498047,11.4419922 12.3498047,11.7263672 L12.3498047,11.7291016 C12.3484375,12.0148437 12.11875,12.2445312 11.834375,12.2445312 Z" id="形状" fill="#CED3DD"></path>
            </g>
        </g>
    </g>
</svg>