<?xml version="1.0" encoding="UTF-8"?>
<svg width="14px" height="14px" viewBox="0 0 14 14" version="1.1" xmlns="http://www.w3.org/2000/svg" xmlns:xlink="http://www.w3.org/1999/xlink">
    <!-- Generator: Sketch 59 (86127) - https://sketch.com -->
    <desc>Created with Sketch.</desc>
    <g id="行销公司" stroke="none" stroke-width="1" fill="none" fill-rule="evenodd">
        <g id="系统帮我规划" transform="translate(-232.000000, -293.000000)">
            <g id="业务说明备份-3" transform="translate(231.000000, 292.000000)">
                <g id="分组">
                    <rect id="矩形" fill="#000000" opacity="0" x="0" y="0" width="16" height="16"></rect>
                    <path d="M8,1.83005405 C4.48864866,1.83005405 1.64324325,4.67545945 1.64324325,8.18681081 C1.64324325,11.6981622 4.48864866,14.5435676 8,14.5435676 C11.5113513,14.5435676 14.3567567,11.6981622 14.3567567,8.18681081 C14.3567567,4.67545947 11.5113513,1.83005405 8,1.83005405 Z M6.45578378,6.53405405 C6.46917838,6.59241315 6.47050278,6.65289428 6.45967567,6.71178378 C6.5087373,6.94574211 6.36098399,7.17578084 6.12781414,7.22846258 C5.8946443,7.28114432 5.66234324,7.13697401 5.60605405,6.90464866 L5.59394595,6.90681081 C5.59128053,6.83087023 5.59128053,6.7548595 5.59394595,6.67891892 C5.58835702,6.62693873 5.59201713,6.5743795 5.60475675,6.52367567 C5.74250023,5.20879812 6.85133281,4.21047546 8.17340541,4.2110268 C9.60043244,4.2110268 10.7563243,5.36562163 10.7563243,6.79091892 C10.7559104,8.04456891 9.85462404,9.11659072 8.61967567,9.33232433 L8.61967567,10.2624865 C8.61967567,10.5042976 8.423649,10.7003243 8.18183784,10.7003243 C7.94002668,10.7003243 7.744,10.5042976 7.744,10.2624865 L7.744,8.96518919 C7.744,8.72691892 7.93427027,8.53405405 8.16951352,8.52756756 L8.16951352,8.52627027 L8.17383784,8.52627027 C9.11738989,8.50520719 9.87130586,7.73427359 9.87130586,6.79048648 C9.87130586,5.84669937 9.11738989,5.07576578 8.17383784,5.0547027 C7.31393714,5.05420315 6.58321602,5.68321555 6.45578378,6.53362163 L6.45578378,6.53405405 Z M7.75048648,11.545946 C7.75048648,11.3041348 7.94651316,11.1081081 8.18832432,11.1081081 C8.43013548,11.1081081 8.62616216,11.3041348 8.62616216,11.545946 C8.62616216,11.7877571 8.43013548,11.9837838 8.18832432,11.9837838 C7.94651316,11.9837838 7.75048648,11.7877571 7.75048648,11.545946 Z" id="形状" fill="#9B9B9B" fill-rule="nonzero"></path>
                </g>
            </g>
        </g>
    </g>
</svg>